<?xml version="1.0" encoding="UTF-8"?>
<svg xmlns="http://www.w3.org/2000/svg" version="1.1" viewBox="0 0 1780 1126.5" width="1780" height="1126.5"><!-- svg-source:excalidraw --><metadata/><defs><clipPath id="j0_XHuITAWcOvOJZc3coa"><rect transform="translate(10 96.5) rotate(0 310 510)" width="620" height="1020" rx="8" ry="8"/></clipPath><clipPath id="Ut3Z8o6ycAIR7WPZo6YWQ"><rect transform="translate(690 96.5) rotate(0 290 450)" width="580" height="900" rx="8" ry="8"/></clipPath><clipPath id="Lk8LYPi_PkOH0DBuwOb8a"><rect transform="translate(1330 96.5) rotate(0 220 280)" width="440" height="560" rx="8" ry="8"/></clipPath><style class="style-fonts">
      </style></defs><rect x="0" y="0" width="1780" height="1126.5" fill="#ffffff"/><g transform="translate(30 10) rotate(0 292.6 16.099999999999994)"><text x="0" y="23.660546874999998" font-family="Helvetica, Segoe UI Emoji" font-size="28px" fill="#3b2a7a" text-anchor="start" style="white-space: pre;" direction="ltr" dominant-baseline="alphabetic">Session interface handoff — TUI ↔ Chat</text></g><g transform="translate(30 50.19999999999999) rotate(0 323.40000000000003 24.150000000000006)"><text x="0" y="11.830273437499999" font-family="Helvetica, Segoe UI Emoji" font-size="14px" fill="#495057" text-anchor="start" style="white-space: pre;" direction="ltr" dominant-baseline="alphabetic">A controller replacement inside one session: same id, workspace, lifecycle facts and</text><text x="0" y="27.9302734375" font-family="Helvetica, Segoe UI Emoji" font-size="14px" fill="#495057" text-anchor="start" style="white-space: pre;" direction="ltr" dominant-baseline="alphabetic">PR ownership. Only the mode-owned controller changes, and the session row is the</text><text x="0" y="44.03027343749999" font-family="Helvetica, Segoe UI Emoji" font-size="14px" fill="#495057" text-anchor="start" style="white-space: pre;" direction="ltr" dominant-baseline="alphabetic">single commit point.</text></g><g transform="translate(10 76) rotate(0 173.25 8.75)"><text x="0" y="12.5302734375" font-family="Helvetica, Segoe UI Emoji" font-size="14px" fill="#999999" text-anchor="start" style="white-space: pre;" direction="ltr" dominant-baseline="alphabetic">Forward path — coordinator in session_manager</text></g><rect transform="translate(10 96.5) rotate(0 310 510)" width="620px" height="1020px" rx="8" ry="8" fill="none" stroke="#bbb" stroke-width="2"/><g xmlns:ns1="http://www.w3.org/2000/svg" ns1:clip-path="url(#j0_XHuITAWcOvOJZc3coa)"><g stroke-linecap="round" transform="translate(50 126.5) rotate(0 270 32.099999999999994)"><path d="M16.05 0 C182.07 0, 348.09 0, 523.95 0 C534.65 0, 540 5.35, 540 16.05 C540 24.04, 540 32.04, 540 48.15 C540 58.85, 534.65 64.2, 523.95 64.2 C368.83 64.2, 213.7 64.2, 16.05 64.2 C5.35 64.2, 0 58.85, 0 48.15 C0 40.77, 0 33.39, 0 16.05 C0 5.35, 5.35 0, 16.05 0" stroke="none" stroke-width="0" fill="#d0e8ff"/><path d="M16.05 0 C206.9 0, 397.76 0, 523.95 0 M16.05 0 C183.5 0, 350.95 0, 523.95 0 M523.95 0 C534.65 0, 540 5.35, 540 16.05 M523.95 0 C534.65 0, 540 5.35, 540 16.05 M540 16.05 C540 25.15, 540 34.24, 540 48.15 M540 16.05 C540 26.23, 540 36.4, 540 48.15 M540 48.15 C540 58.85, 534.65 64.2, 523.95 64.2 M540 48.15 C540 58.85, 534.65 64.2, 523.95 64.2 M523.95 64.2 C325.5 64.2, 127.05 64.2, 16.05 64.2 M523.95 64.2 C378.67 64.2, 233.39 64.2, 16.05 64.2 M16.05 64.2 C5.35 64.2, 0 58.85, 0 48.15 M16.05 64.2 C5.35 64.2, 0 58.85, 0 48.15 M0 48.15 C0 40.86, 0 33.58, 0 16.05 M0 48.15 C0 37.01, 0 25.87, 0 16.05 M0 16.05 C0 5.35, 5.35 0, 16.05 0 M0 16.05 C0 5.35, 5.35 0, 16.05 0" stroke="#1971c2" stroke-width="1" fill="none"/></g></g><g xmlns:ns2="http://www.w3.org/2000/svg" ns2:clip-path="url(#j0_XHuITAWcOvOJZc3coa)"><g transform="translate(280.4 139.5) rotate(0 39.599999999999994 9.200000000000003)"><text x="39.6" y="13.5203125" font-family="Helvetica, Segoe UI Emoji" font-size="16px" fill="#0b3d6b" text-anchor="middle" style="white-space: pre;" direction="ltr" dominant-baseline="alphabetic">requested</text></g></g><g xmlns:ns3="http://www.w3.org/2000/svg" ns3:clip-path="url(#j0_XHuITAWcOvOJZc3coa)"><g transform="translate(211.1 163.9) rotate(0 108.89999999999999 6.900000000000006)"><text x="108.9" y="10.140234374999999" font-family="Helvetica, Segoe UI Emoji" font-size="12px" fill="#0b3d6b" text-anchor="middle" style="white-space: pre;" direction="ltr" dominant-baseline="alphabetic">client posts target mode + policy</text></g></g><g xmlns:ns4="http://www.w3.org/2000/svg" ns4:clip-path="url(#j0_XHuITAWcOvOJZc3coa)"><g stroke-linecap="round" transform="translate(50 216.5) rotate(0 270 32.099999999999994)"><path d="M16.05 0 C210.52 0, 405 0, 523.95 0 C534.65 0, 540 5.35, 540 16.05 C540 28.37, 540 40.7, 540 48.15 C540 58.85, 534.65 64.2, 523.95 64.2 C405.55 64.2, 287.16 64.2, 16.05 64.2 C5.35 64.2, 0 58.85, 0 48.15 C0 35.55, 0 22.94, 0 16.05 C0 5.35, 5.35 0, 16.05 0" stroke="none" stroke-width="0" fill="#d0e8ff"/><path d="M16.05 0 C148.4 0, 280.76 0, 523.95 0 M16.05 0 C144.4 0, 272.75 0, 523.95 0 M523.95 0 C534.65 0, 540 5.35, 540 16.05 M523.95 0 C534.65 0, 540 5.35, 540 16.05 M540 16.05 C540 23.58, 540 31.11, 540 48.15 M540 16.05 C540 28.73, 540 41.41, 540 48.15 M540 48.15 C540 58.85, 534.65 64.2, 523.95 64.2 M540 48.15 C540 58.85, 534.65 64.2, 523.95 64.2 M523.95 64.2 C409.78 64.2, 295.61 64.2, 16.05 64.2 M523.95 64.2 C405.9 64.2, 287.86 64.2, 16.05 64.2 M16.05 64.2 C5.35 64.2, 0 58.85, 0 48.15 M16.05 64.2 C5.35 64.2, 0 58.85, 0 48.15 M0 48.15 C0 39.35, 0 30.55, 0 16.05 M0 48.15 C0 40.89, 0 33.62, 0 16.05 M0 16.05 C0 5.35, 5.35 0, 16.05 0 M0 16.05 C0 5.35, 5.35 0, 16.05 0" stroke="#1971c2" stroke-width="1" fill="none"/></g></g><g xmlns:ns5="http://www.w3.org/2000/svg" ns5:clip-path="url(#j0_XHuITAWcOvOJZc3coa)"><g transform="translate(298 229.5) rotate(0 22 9.199999999999989)"><text x="22" y="13.5203125" font-family="Helvetica, Segoe UI Emoji" font-size="16px" fill="#0b3d6b" text-anchor="middle" style="white-space: pre;" direction="ltr" dominant-baseline="alphabetic">claim</text></g></g><g xmlns:ns6="http://www.w3.org/2000/svg" ns6:clip-path="url(#j0_XHuITAWcOvOJZc3coa)"><g transform="translate(184.7 253.89999999999998) rotate(0 135.3 6.900000000000006)"><text x="135.3" y="10.140234374999999" font-family="Helvetica, Segoe UI Emoji" font-size="12px" fill="#0b3d6b" text-anchor="middle" style="white-space: pre;" direction="ltr" dominant-baseline="alphabetic">exactly one active transition per session</text></g></g><g xmlns:ns7="http://www.w3.org/2000/svg" ns7:clip-path="url(#j0_XHuITAWcOvOJZc3coa)"><g stroke-linecap="round" transform="translate(50 306.5) rotate(0 270 32.099999999999994)"><path d="M16.05 0 C128.66 0, 241.27 0, 523.95 0 C534.65 0, 540 5.35, 540 16.05 C540 23.67, 540 31.3, 540 48.15 C540 58.85, 534.65 64.2, 523.95 64.2 C352.51 64.2, 181.08 64.2, 16.05 64.2 C5.35 64.2, 0 58.85, 0 48.15 C0 35.44, 0 22.72, 0 16.05 C0 5.35, 5.35 0, 16.05 0" stroke="none" stroke-width="0" fill="#ffe8d0"/><path d="M16.05 0 C207.5 0, 398.95 0, 523.95 0 M16.05 0 C166.85 0, 317.65 0, 523.95 0 M523.95 0 C534.65 0, 540 5.35, 540 16.05 M523.95 0 C534.65 0, 540 5.35, 540 16.05 M540 16.05 C540 25.62, 540 35.19, 540 48.15 M540 16.05 C540 23.93, 540 31.82, 540 48.15 M540 48.15 C540 58.85, 534.65 64.2, 523.95 64.2 M540 48.15 C540 58.85, 534.65 64.2, 523.95 64.2 M523.95 64.2 C339.28 64.2, 154.61 64.2, 16.05 64.2 M523.95 64.2 C384.8 64.2, 245.64 64.2, 16.05 64.2 M16.05 64.2 C5.35 64.2, 0 58.85, 0 48.15 M16.05 64.2 C5.35 64.2, 0 58.85, 0 48.15 M0 48.15 C0 39.26, 0 30.38, 0 16.05 M0 48.15 C0 37.54, 0 26.93, 0 16.05 M0 16.05 C0 5.35, 5.35 0, 16.05 0 M0 16.05 C0 5.35, 5.35 0, 16.05 0" stroke="#e8590c" stroke-width="1" fill="none"/></g></g><g xmlns:ns8="http://www.w3.org/2000/svg" ns8:clip-path="url(#j0_XHuITAWcOvOJZc3coa)"><g transform="translate(254 319.5) rotate(0 66 9.199999999999989)"><text x="66" y="13.5203125" font-family="Helvetica, Segoe UI Emoji" font-size="16px" fill="#7c2d12" text-anchor="middle" style="white-space: pre;" direction="ltr" dominant-baseline="alphabetic">gate the source</text></g></g><g xmlns:ns9="http://www.w3.org/2000/svg" ns9:clip-path="url(#j0_XHuITAWcOvOJZc3coa)"><g transform="translate(135.2 343.9) rotate(0 184.79999999999998 6.900000000000006)"><text x="184.8" y="10.140234374999999" font-family="Helvetica, Segoe UI Emoji" font-size="12px" fill="#7c2d12" text-anchor="middle" style="white-space: pre;" direction="ltr" dominant-baseline="alphabetic">arm the handoff and close intake, or gate terminal input</text></g></g><g xmlns:ns10="http://www.w3.org/2000/svg" ns10:clip-path="url(#j0_XHuITAWcOvOJZc3coa)"><g stroke-linecap="round" transform="translate(50 396.5) rotate(0 270 32.099999999999994)"><path d="M16.05 0 C121.18 0, 226.31 0, 523.95 0 C534.65 0, 540 5.35, 540 16.05 C540 25, 540 33.95, 540 48.15 C540 58.85, 534.65 64.2, 523.95 64.2 C359.69 64.2, 195.43 64.2, 16.05 64.2 C5.35 64.2, 0 58.85, 0 48.15 C0 37.07, 0 26, 0 16.05 C0 5.35, 5.35 0, 16.05 0" stroke="none" stroke-width="0" fill="#ffe8d0"/><path d="M16.05 0 C165.04 0, 314.03 0, 523.95 0 M16.05 0 C203.56 0, 391.07 0, 523.95 0 M523.95 0 C534.65 0, 540 5.35, 540 16.05 M523.95 0 C534.65 0, 540 5.35, 540 16.05 M540 16.05 C540 26.67, 540 37.28, 540 48.15 M540 16.05 C540 24.54, 540 33.02, 540 48.15 M540 48.15 C540 58.85, 534.65 64.2, 523.95 64.2 M540 48.15 C540 58.85, 534.65 64.2, 523.95 64.2 M523.95 64.2 C408.36 64.2, 292.77 64.2, 16.05 64.2 M523.95 64.2 C390.56 64.2, 257.18 64.2, 16.05 64.2 M16.05 64.2 C5.35 64.2, 0 58.85, 0 48.15 M16.05 64.2 C5.35 64.2, 0 58.85, 0 48.15 M0 48.15 C0 38.03, 0 27.91, 0 16.05 M0 48.15 C0 37.74, 0 27.32, 0 16.05 M0 16.05 C0 5.35, 5.35 0, 16.05 0 M0 16.05 C0 5.35, 5.35 0, 16.05 0" stroke="#e8590c" stroke-width="1" fill="none"/></g></g><g xmlns:ns11="http://www.w3.org/2000/svg" ns11:clip-path="url(#j0_XHuITAWcOvOJZc3coa)"><g transform="translate(218.8 409.5) rotate(0 101.20000000000002 9.199999999999989)"><text x="101.2" y="13.5203125" font-family="Helvetica, Segoe UI Emoji" font-size="16px" fill="#7c2d12" text-anchor="middle" style="white-space: pre;" direction="ltr" dominant-baseline="alphabetic">preflighting the target</text></g></g><g xmlns:ns12="http://www.w3.org/2000/svg" ns12:clip-path="url(#j0_XHuITAWcOvOJZc3coa)"><g transform="translate(118.69999999999999 433.9) rotate(0 201.29999999999998 6.900000000000006)"><text x="201.3" y="10.140234374999999" font-family="Helvetica, Segoe UI Emoji" font-size="12px" fill="#7c2d12" text-anchor="middle" style="white-space: pre;" direction="ltr" dominant-baseline="alphabetic">binary, auth and protocol checked before anything is given up</text></g></g><g xmlns:ns13="http://www.w3.org/2000/svg" ns13:clip-path="url(#j0_XHuITAWcOvOJZc3coa)"><g stroke-linecap="round" transform="translate(50 496.5) rotate(0 270 32.10000000000002)"><path d="M16.05 0 C182.31 0, 348.57 0, 523.95 0 C534.65 0, 540 5.35, 540 16.05 C540 26, 540 35.95, 540 48.15 C540 58.85, 534.65 64.2, 523.95 64.2 C413.72 64.2, 303.49 64.2, 16.05 64.2 C5.35 64.2, 0 58.85, 0 48.15 C0 39.39, 0 30.64, 0 16.05 C0 5.35, 5.35 0, 16.05 0" stroke="none" stroke-width="0" fill="#e5dbff"/><path d="M16.05 0 C154.3 0, 292.54 0, 523.95 0 M16.05 0 C185.16 0, 354.27 0, 523.95 0 M523.95 0 C534.65 0, 540 5.35, 540 16.05 M523.95 0 C534.65 0, 540 5.35, 540 16.05 M540 16.05 C540 23.16, 540 30.28, 540 48.15 M540 16.05 C540 28.86, 540 41.67, 540 48.15 M540 48.15 C540 58.85, 534.65 64.2, 523.95 64.2 M540 48.15 C540 58.85, 534.65 64.2, 523.95 64.2 M523.95 64.2 C344.69 64.2, 165.43 64.2, 16.05 64.2 M523.95 64.2 C390.76 64.2, 257.57 64.2, 16.05 64.2 M16.05 64.2 C5.35 64.2, 0 58.85, 0 48.15 M16.05 64.2 C5.35 64.2, 0 58.85, 0 48.15 M0 48.15 C0 41.13, 0 34.1, 0 16.05 M0 48.15 C0 40.62, 0 33.1, 0 16.05 M0 16.05 C0 5.35, 5.35 0, 16.05 0 M0 16.05 C0 5.35, 5.35 0, 16.05 0" stroke="#5f3dc4" stroke-width="1" fill="none"/></g></g><g xmlns:ns14="http://www.w3.org/2000/svg" ns14:clip-path="url(#j0_XHuITAWcOvOJZc3coa)"><g transform="translate(293.6 509.5) rotate(0 26.400000000000006 9.199999999999989)"><text x="26.400000000000002" y="13.5203125" font-family="Helvetica, Segoe UI Emoji" font-size="16px" fill="#3b2a7a" text-anchor="middle" style="white-space: pre;" direction="ltr" dominant-baseline="alphabetic">policy</text></g></g><g xmlns:ns15="http://www.w3.org/2000/svg" ns15:clip-path="url(#j0_XHuITAWcOvOJZc3coa)"><g transform="translate(115.39999999999998 533.9) rotate(0 204.60000000000002 6.899999999999977)"><text x="204.60000000000002" y="10.140234374999999" font-family="Helvetica, Segoe UI Emoji" font-size="12px" fill="#3b2a7a" text-anchor="middle" style="white-space: pre;" direction="ltr" dominant-baseline="alphabetic">drain is loss-minimizing · interrupt closes intake immediately</text></g></g><g xmlns:ns16="http://www.w3.org/2000/svg" ns16:clip-path="url(#j0_XHuITAWcOvOJZc3coa)"><g stroke-linecap="round" transform="translate(50 626.5) rotate(0 125 32.10000000000002)"><path d="M16.05 0 C96.67 0, 177.28 0, 233.95 0 C244.65 0, 250 5.35, 250 16.05 C250 24.75, 250 33.44, 250 48.15 C250 58.85, 244.65 64.2, 233.95 64.2 C147.98 64.2, 62.02 64.2, 16.05 64.2 C5.35 64.2, 0 58.85, 0 48.15 C0 36.64, 0 25.12, 0 16.05 C0 5.35, 5.35 0, 16.05 0" stroke="none" stroke-width="0" fill="#fff3bf"/><path d="M16.05 0 C79.81 0, 143.58 0, 233.95 0 M16.05 0 C77.8 0, 139.54 0, 233.95 0 M233.95 0 C244.65 0, 250 5.35, 250 16.05 M233.95 0 C244.65 0, 250 5.35, 250 16.05 M250 16.05 C250 22.7, 250 29.35, 250 48.15 M250 16.05 C250 28.59, 250 41.13, 250 48.15 M250 48.15 C250 58.85, 244.65 64.2, 233.95 64.2 M250 48.15 C250 58.85, 244.65 64.2, 233.95 64.2 M233.95 64.2 C169.88 64.2, 105.82 64.2, 16.05 64.2 M233.95 64.2 C184.48 64.2, 135.02 64.2, 16.05 64.2 M16.05 64.2 C5.35 64.2, 0 58.85, 0 48.15 M16.05 64.2 C5.35 64.2, 0 58.85, 0 48.15 M0 48.15 C0 38.59, 0 29.04, 0 16.05 M0 48.15 C0 37.66, 0 27.16, 0 16.05 M0 16.05 C0 5.35, 5.35 0, 16.05 0 M0 16.05 C0 5.35, 5.35 0, 16.05 0" stroke="#f08c00" stroke-width="1" fill="none"/></g></g><g xmlns:ns17="http://www.w3.org/2000/svg" ns17:clip-path="url(#j0_XHuITAWcOvOJZc3coa)"><g transform="translate(153 639.5) rotate(0 22 9.199999999999989)"><text x="22" y="13.5203125" font-family="Helvetica, Segoe UI Emoji" font-size="16px" fill="#663c00" text-anchor="middle" style="white-space: pre;" direction="ltr" dominant-baseline="alphabetic">drain</text></g></g><g xmlns:ns18="http://www.w3.org/2000/svg" ns18:clip-path="url(#j0_XHuITAWcOvOJZc3coa)"><g transform="translate(109 663.9) rotate(0 66 6.899999999999977)"><text x="66" y="10.140234374999999" font-family="Helvetica, Segoe UI Emoji" font-size="12px" fill="#663c00" text-anchor="middle" style="white-space: pre;" direction="ltr" dominant-baseline="alphabetic">finish accepted work</text></g></g><g xmlns:ns19="http://www.w3.org/2000/svg" ns19:clip-path="url(#j0_XHuITAWcOvOJZc3coa)"><g stroke-linecap="round" transform="translate(340 626.5) rotate(0 125 32.10000000000002)"><path d="M16.05 0 C96.16 0, 176.27 0, 233.95 0 C244.65 0, 250 5.35, 250 16.05 C250 23.96, 250 31.86, 250 48.15 C250 58.85, 244.65 64.2, 233.95 64.2 C162.15 64.2, 90.35 64.2, 16.05 64.2 C5.35 64.2, 0 58.85, 0 48.15 C0 37.23, 0 26.31, 0 16.05 C0 5.35, 5.35 0, 16.05 0" stroke="none" stroke-width="0" fill="#fff3bf"/><path d="M16.05 0 C78.92 0, 141.8 0, 233.95 0 M16.05 0 C67.18 0, 118.3 0, 233.95 0 M233.95 0 C244.65 0, 250 5.35, 250 16.05 M233.95 0 C244.65 0, 250 5.35, 250 16.05 M250 16.05 C250 23.84, 250 31.63, 250 48.15 M250 16.05 C250 23.27, 250 30.48, 250 48.15 M250 48.15 C250 58.85, 244.65 64.2, 233.95 64.2 M250 48.15 C250 58.85, 244.65 64.2, 233.95 64.2 M233.95 64.2 C150.22 64.2, 66.49 64.2, 16.05 64.2 M233.95 64.2 C174.21 64.2, 114.46 64.2, 16.05 64.2 M16.05 64.2 C5.35 64.2, 0 58.85, 0 48.15 M16.05 64.2 C5.35 64.2, 0 58.85, 0 48.15 M0 48.15 C0 35.63, 0 23.1, 0 16.05 M0 48.15 C0 35.86, 0 23.57, 0 16.05 M0 16.05 C0 5.35, 5.35 0, 16.05 0 M0 16.05 C0 5.35, 5.35 0, 16.05 0" stroke="#f08c00" stroke-width="1" fill="none"/></g></g><g xmlns:ns20="http://www.w3.org/2000/svg" ns20:clip-path="url(#j0_XHuITAWcOvOJZc3coa)"><g transform="translate(425.4 639.5) rotate(0 39.60000000000002 9.199999999999989)"><text x="39.6" y="13.5203125" font-family="Helvetica, Segoe UI Emoji" font-size="16px" fill="#663c00" text-anchor="middle" style="white-space: pre;" direction="ltr" dominant-baseline="alphabetic">interrupt</text></g></g><g xmlns:ns21="http://www.w3.org/2000/svg" ns21:clip-path="url(#j0_XHuITAWcOvOJZc3coa)"><g transform="translate(366 663.9) rotate(0 99 6.899999999999977)"><text x="99.00000000000001" y="10.140234374999999" font-family="Helvetica, Segoe UI Emoji" font-size="12px" fill="#663c00" text-anchor="middle" style="white-space: pre;" direction="ltr" dominant-baseline="alphabetic">cancel queued and active turns</text></g></g><g xmlns:ns22="http://www.w3.org/2000/svg" ns22:clip-path="url(#j0_XHuITAWcOvOJZc3coa)"><g stroke-linecap="round" transform="translate(50 736.5) rotate(0 270 32.10000000000002)"><path d="M16.05 0 C164.4 0, 312.76 0, 523.95 0 C534.65 0, 540 5.35, 540 16.05 C540 24.25, 540 32.44, 540 48.15 C540 58.85, 534.65 64.2, 523.95 64.2 C388.11 64.2, 252.26 64.2, 16.05 64.2 C5.35 64.2, 0 58.85, 0 48.15 C0 36.43, 0 24.7, 0 16.05 C0 5.35, 5.35 0, 16.05 0" stroke="none" stroke-width="0" fill="#ffe8d0"/><path d="M16.05 0 C181.4 0, 346.75 0, 523.95 0 M16.05 0 C167.45 0, 318.85 0, 523.95 0 M523.95 0 C534.65 0, 540 5.35, 540 16.05 M523.95 0 C534.65 0, 540 5.35, 540 16.05 M540 16.05 C540 23.49, 540 30.94, 540 48.15 M540 16.05 C540 27.72, 540 39.39, 540 48.15 M540 48.15 C540 58.85, 534.65 64.2, 523.95 64.2 M540 48.15 C540 58.85, 534.65 64.2, 523.95 64.2 M523.95 64.2 C413.34 64.2, 302.73 64.2, 16.05 64.2 M523.95 64.2 C383.34 64.2, 242.73 64.2, 16.05 64.2 M16.05 64.2 C5.35 64.2, 0 58.85, 0 48.15 M16.05 64.2 C5.35 64.2, 0 58.85, 0 48.15 M0 48.15 C0 36.4, 0 24.64, 0 16.05 M0 48.15 C0 41.03, 0 33.92, 0 16.05 M0 16.05 C0 5.35, 5.35 0, 16.05 0 M0 16.05 C0 5.35, 5.35 0, 16.05 0" stroke="#e8590c" stroke-width="1" fill="none"/></g></g><g xmlns:ns23="http://www.w3.org/2000/svg" ns23:clip-path="url(#j0_XHuITAWcOvOJZc3coa)"><g transform="translate(179.2 749.5) rotate(0 140.8 9.199999999999989)"><text x="140.8" y="13.5203125" font-family="Helvetica, Segoe UI Emoji" font-size="16px" fill="#7c2d12" text-anchor="middle" style="white-space: pre;" direction="ltr" dominant-baseline="alphabetic">source_stopping → source_stopped</text></g></g><g xmlns:ns24="http://www.w3.org/2000/svg" ns24:clip-path="url(#j0_XHuITAWcOvOJZc3coa)"><g transform="translate(168.2 773.9) rotate(0 151.8 6.899999999999977)"><text x="151.8" y="10.140234374999999" font-family="Helvetica, Segoe UI Emoji" font-size="12px" fill="#7c2d12" text-anchor="middle" style="white-space: pre;" direction="ltr" dominant-baseline="alphabetic">short transcript flush, then wait for shutdown</text></g></g><g xmlns:ns25="http://www.w3.org/2000/svg" ns25:clip-path="url(#j0_XHuITAWcOvOJZc3coa)"><g stroke-linecap="round" transform="translate(50 826.5) rotate(0 270 32.10000000000002)"><path d="M16.05 0 C192.29 0, 368.53 0, 523.95 0 C534.65 0, 540 5.35, 540 16.05 C540 22.72, 540 29.4, 540 48.15 C540 58.85, 534.65 64.2, 523.95 64.2 C414.2 64.2, 304.45 64.2, 16.05 64.2 C5.35 64.2, 0 58.85, 0 48.15 C0 35.76, 0 23.38, 0 16.05 C0 5.35, 5.35 0, 16.05 0" stroke="none" stroke-width="0" fill="#d3f9d8"/><path d="M16.05 0 C134.64 0, 253.24 0, 523.95 0 M16.05 0 C184.04 0, 352.03 0, 523.95 0 M523.95 0 C534.65 0, 540 5.35, 540 16.05 M523.95 0 C534.65 0, 540 5.35, 540 16.05 M540 16.05 C540 22.65, 540 29.24, 540 48.15 M540 16.05 C540 23.36, 540 30.66, 540 48.15 M540 48.15 C540 58.85, 534.65 64.2, 523.95 64.2 M540 48.15 C540 58.85, 534.65 64.2, 523.95 64.2 M523.95 64.2 C415.54 64.2, 307.14 64.2, 16.05 64.2 M523.95 64.2 C363.86 64.2, 203.78 64.2, 16.05 64.2 M16.05 64.2 C5.35 64.2, 0 58.85, 0 48.15 M16.05 64.2 C5.35 64.2, 0 58.85, 0 48.15 M0 48.15 C0 37.45, 0 26.74, 0 16.05 M0 48.15 C0 41.51, 0 34.86, 0 16.05 M0 16.05 C0 5.35, 5.35 0, 16.05 0 M0 16.05 C0 5.35, 5.35 0, 16.05 0" stroke="#2b8a3e" stroke-width="1" fill="none"/></g></g><g xmlns:ns26="http://www.w3.org/2000/svg" ns26:clip-path="url(#j0_XHuITAWcOvOJZc3coa)"><g transform="translate(188 839.5) rotate(0 132 9.199999999999989)"><text x="132" y="13.5203125" font-family="Helvetica, Segoe UI Emoji" font-size="16px" fill="#14532d" text-anchor="middle" style="white-space: pre;" direction="ltr" dominant-baseline="alphabetic">COMMIT — CommitControllerEpoch</text></g></g><g xmlns:ns27="http://www.w3.org/2000/svg" ns27:clip-path="url(#j0_XHuITAWcOvOJZc3coa)"><g transform="translate(105.49999999999997 863.9) rotate(0 214.5 6.899999999999977)"><text x="214.50000000000003" y="10.140234374999999" font-family="Helvetica, Segoe UI Emoji" font-size="12px" fill="#14532d" text-anchor="middle" style="white-space: pre;" direction="ltr" dominant-baseline="alphabetic">CAS mode, clear the old generation and handles, set the idle fact</text></g></g><g xmlns:ns28="http://www.w3.org/2000/svg" ns28:clip-path="url(#j0_XHuITAWcOvOJZc3coa)"><g stroke-linecap="round" transform="translate(50 926.5) rotate(0 270 32.10000000000002)"><path d="M16.05 0 C156.03 0, 296.01 0, 523.95 0 C534.65 0, 540 5.35, 540 16.05 C540 28.33, 540 40.6, 540 48.15 C540 58.85, 534.65 64.2, 523.95 64.2 C335.88 64.2, 147.82 64.2, 16.05 64.2 C5.35 64.2, 0 58.85, 0 48.15 C0 40.87, 0 33.58, 0 16.05 C0 5.35, 5.35 0, 16.05 0" stroke="none" stroke-width="0" fill="#ffe8d0"/><path d="M16.05 0 C138.59 0, 261.14 0, 523.95 0 M16.05 0 C128.6 0, 241.15 0, 523.95 0 M523.95 0 C534.65 0, 540 5.35, 540 16.05 M523.95 0 C534.65 0, 540 5.35, 540 16.05 M540 16.05 C540 25.03, 540 34.01, 540 48.15 M540 16.05 C540 27.38, 540 38.71, 540 48.15 M540 48.15 C540 58.85, 534.65 64.2, 523.95 64.2 M540 48.15 C540 58.85, 534.65 64.2, 523.95 64.2 M523.95 64.2 C409.89 64.2, 295.82 64.2, 16.05 64.2 M523.95 64.2 C412.81 64.2, 301.66 64.2, 16.05 64.2 M16.05 64.2 C5.35 64.2, 0 58.85, 0 48.15 M16.05 64.2 C5.35 64.2, 0 58.85, 0 48.15 M0 48.15 C0 41.02, 0 33.89, 0 16.05 M0 48.15 C0 37.64, 0 27.13, 0 16.05 M0 16.05 C0 5.35, 5.35 0, 16.05 0 M0 16.05 C0 5.35, 5.35 0, 16.05 0" stroke="#e8590c" stroke-width="1" fill="none"/></g></g><g xmlns:ns29="http://www.w3.org/2000/svg" ns29:clip-path="url(#j0_XHuITAWcOvOJZc3coa)"><g transform="translate(196.79999999999998 939.5) rotate(0 123.20000000000003 9.199999999999989)"><text x="123.20000000000002" y="13.5203125" font-family="Helvetica, Segoe UI Emoji" font-size="16px" fill="#7c2d12" text-anchor="middle" style="white-space: pre;" direction="ltr" dominant-baseline="alphabetic">target_starting → activating</text></g></g><g xmlns:ns30="http://www.w3.org/2000/svg" ns30:clip-path="url(#j0_XHuITAWcOvOJZc3coa)"><g transform="translate(102.19999999999999 963.9) rotate(0 217.79999999999998 6.899999999999977)"><text x="217.8" y="10.140234374999999" font-family="Helvetica, Segoe UI Emoji" font-size="12px" fill="#7c2d12" text-anchor="middle" style="white-space: pre;" direction="ltr" dominant-baseline="alphabetic">native resume of the same conversation id, then persist the handle</text></g></g><g xmlns:ns31="http://www.w3.org/2000/svg" ns31:clip-path="url(#j0_XHuITAWcOvOJZc3coa)"><g stroke-linecap="round" transform="translate(50 1026.5) rotate(0 270 32.10000000000002)"><path d="M16.05 0 C130.45 0, 244.84 0, 523.95 0 C534.65 0, 540 5.35, 540 16.05 C540 24.51, 540 32.97, 540 48.15 C540 58.85, 534.65 64.2, 523.95 64.2 C397.84 64.2, 271.72 64.2, 16.05 64.2 C5.35 64.2, 0 58.85, 0 48.15 C0 40.79, 0 33.43, 0 16.05 C0 5.35, 5.35 0, 16.05 0" stroke="none" stroke-width="0" fill="#d3f9d8"/><path d="M16.05 0 C203.98 0, 391.91 0, 523.95 0 M16.05 0 C121.29 0, 226.53 0, 523.95 0 M523.95 0 C534.65 0, 540 5.35, 540 16.05 M523.95 0 C534.65 0, 540 5.35, 540 16.05 M540 16.05 C540 25.19, 540 34.33, 540 48.15 M540 16.05 C540 25.49, 540 34.93, 540 48.15 M540 48.15 C540 58.85, 534.65 64.2, 523.95 64.2 M540 48.15 C540 58.85, 534.65 64.2, 523.95 64.2 M523.95 64.2 C421.39 64.2, 318.83 64.2, 16.05 64.2 M523.95 64.2 C372.74 64.2, 221.53 64.2, 16.05 64.2 M16.05 64.2 C5.35 64.2, 0 58.85, 0 48.15 M16.05 64.2 C5.35 64.2, 0 58.85, 0 48.15 M0 48.15 C0 39.42, 0 30.7, 0 16.05 M0 48.15 C0 36.27, 0 24.4, 0 16.05 M0 16.05 C0 5.35, 5.35 0, 16.05 0 M0 16.05 C0 5.35, 5.35 0, 16.05 0" stroke="#2b8a3e" stroke-width="1" fill="none"/></g></g><g xmlns:ns32="http://www.w3.org/2000/svg" ns32:clip-path="url(#j0_XHuITAWcOvOJZc3coa)"><g transform="translate(280.4 1039.5) rotate(0 39.599999999999994 9.200000000000045)"><text x="39.6" y="13.5203125" font-family="Helvetica, Segoe UI Emoji" font-size="16px" fill="#14532d" text-anchor="middle" style="white-space: pre;" direction="ltr" dominant-baseline="alphabetic">completed</text></g></g><g xmlns:ns33="http://www.w3.org/2000/svg" ns33:clip-path="url(#j0_XHuITAWcOvOJZc3coa)"><g transform="translate(138.49999999999997 1063.9) rotate(0 181.5 6.899999999999977)"><text x="181.50000000000003" y="10.140234374999999" font-family="Helvetica, Segoe UI Emoji" font-size="12px" fill="#14532d" text-anchor="middle" style="white-space: pre;" direction="ltr" dominant-baseline="alphabetic">session_updated reaches clients through the CDC fan-out</text></g></g><g xmlns:ns34="http://www.w3.org/2000/svg" ns34:clip-path="url(#j0_XHuITAWcOvOJZc3coa)"><g stroke-linecap="round"><g transform="translate(320 187) rotate(0 0 14.5)"><path d="M-0.3 -0.05 C-0.47 4.83, -0.63 24.02, -0.51 28.8 M0.55 -0.55 C0.49 4.44, 0.5 24.46, 0.46 29.4" stroke="#e8590c" stroke-width="1" fill="none"/></g><g transform="translate(320 187) rotate(0 0 14.5)"><path d="M-4.45 15.76 C-2.62 20.5, -0.87 27.14, 0.46 29.4 M-4.45 15.76 C-3.44 19.38, -1.88 22.01, 0.46 29.4" stroke="#e8590c" stroke-width="1" fill="none"/></g><g transform="translate(320 187) rotate(0 0 14.5)"><path d="M5.47 15.79 C3.37 20.5, 1.19 27.12, 0.46 29.4 M5.47 15.79 C4.07 19.45, 3.22 22.08, 0.46 29.4" stroke="#e8590c" stroke-width="1" fill="none"/></g></g><mask/></g><g xmlns:ns35="http://www.w3.org/2000/svg" ns35:clip-path="url(#j0_XHuITAWcOvOJZc3coa)"><g stroke-linecap="round"><g transform="translate(320 277) rotate(0 0 14.5)"><path d="M-0.05 -0.51 C-0.01 4.44, -0.15 24.42, -0.2 29.43 M-0.73 0.42 C-0.75 5.25, -0.71 23.96, -0.73 28.68" stroke="#e8590c" stroke-width="1" fill="none"/></g><g transform="translate(320 277) rotate(0 0 14.5)"><path d="M-5.68 15.05 C-5.29 17.82, -2.96 20.68, -0.73 28.68 M-5.68 15.05 C-3.31 20.63, -2.01 25.67, -0.73 28.68" stroke="#e8590c" stroke-width="1" fill="none"/></g><g transform="translate(320 277) rotate(0 0 14.5)"><path d="M4.24 15.06 C2.43 17.82, 2.56 20.68, -0.73 28.68 M4.24 15.06 C2.65 20.59, 0 25.64, -0.73 28.68" stroke="#e8590c" stroke-width="1" fill="none"/></g></g><mask/></g><g xmlns:ns36="http://www.w3.org/2000/svg" ns36:clip-path="url(#j0_XHuITAWcOvOJZc3coa)"><g stroke-linecap="round"><g transform="translate(320 367) rotate(0 0 14.5)"><path d="M-0.51 -0.2 C-0.39 4.59, 0.25 23.73, 0.43 28.68 M0.23 -0.77 C0.34 4.09, 0.18 24.3, 0.22 29.22" stroke="#e8590c" stroke-width="1" fill="none"/></g><g transform="translate(320 367) rotate(0 0 14.5)"><path d="M-4.73 15.59 C-3.78 19.53, -2.72 23.03, 0.22 29.22 M-4.73 15.59 C-2.7 20.64, -1.12 26.63, 0.22 29.22" stroke="#e8590c" stroke-width="1" fill="none"/></g><g transform="translate(320 367) rotate(0 0 14.5)"><path d="M5.19 15.6 C3.7 19.49, 2.32 22.99, 0.22 29.22 M5.19 15.6 C3.28 20.69, 0.92 26.67, 0.22 29.22" stroke="#e8590c" stroke-width="1" fill="none"/></g></g><mask/></g><g xmlns:ns37="http://www.w3.org/2000/svg" ns37:clip-path="url(#j0_XHuITAWcOvOJZc3coa)"><g stroke-linecap="round"><g transform="translate(320 457) rotate(0 0 19.5)"><path d="M-0.2 0.43 C-0.24 7.1, -0.44 33.18, -0.32 39.54 M0.7 0.17 C0.84 6.75, 0.8 32.38, 0.76 38.86" stroke="#e8590c" stroke-width="1" fill="none"/></g><g transform="translate(320 457) rotate(0 0 19.5)"><path d="M-5.85 20.51 C-3.25 25.31, -1.12 32.17, 0.76 38.86 M-5.85 20.51 C-4.7 24.39, -2.38 28.91, 0.76 38.86" stroke="#e8590c" stroke-width="1" fill="none"/></g><g transform="translate(320 457) rotate(0 0 19.5)"><path d="M7.49 20.56 C6.2 25.32, 4.44 32.16, 0.76 38.86 M7.49 20.56 C5.55 24.44, 4.77 28.96, 0.76 38.86" stroke="#e8590c" stroke-width="1" fill="none"/></g></g><mask/></g><g xmlns:ns38="http://www.w3.org/2000/svg" ns38:clip-path="url(#j0_XHuITAWcOvOJZc3coa)"><g stroke-linecap="round"><g transform="translate(320 557) rotate(0 -72.5 34.5)"><path d="M0.93 -0.69 C1.32 4.49, 25.65 25.45, 1.19 30.66 C-23.27 35.88, -121.52 24.39, -145.82 30.59 C-170.12 36.79, -144.6 61.33, -144.61 67.87 M-0.04 1.57 C0.39 6.48, 24.75 24.61, 0.86 29.15 C-23.02 33.69, -119.18 22.28, -143.35 28.82 C-167.52 35.35, -144.03 61.41, -144.17 68.37" stroke="#f08c00" stroke-width="1" fill="none"/></g><g transform="translate(320 557) rotate(0 -72.5 34.5)"><path d="M-157.55 53.85 C-155.96 58.71, -150.14 58.42, -144.17 68.37 M-157.55 53.85 C-153.01 60.3, -147.24 65.95, -144.17 68.37" stroke="#f08c00" stroke-width="1" fill="none"/></g><g transform="translate(320 557) rotate(0 -72.5 34.5)"><path d="M-145.08 48.65 C-146.09 54.68, -142.86 55.47, -144.17 68.37 M-145.08 48.65 C-145.4 57.01, -144.5 64.7, -144.17 68.37" stroke="#f08c00" stroke-width="1" fill="none"/></g></g><mask/></g><g xmlns:ns39="http://www.w3.org/2000/svg" ns39:clip-path="url(#j0_XHuITAWcOvOJZc3coa)"><g stroke-linecap="round"><g transform="translate(320 557) rotate(0 72.5 34.5)"><path d="M-0.69 1.19 C-0.42 5.81, -23.3 23.9, 1.16 28.68 C25.63 33.47, 122.31 23.32, 146.09 29.89 C169.87 36.45, 143.92 61.62, 143.87 68.1 M1.15 0.77 C1.4 5.44, -23.3 25.29, 0.83 29.79 C24.95 34.29, 122.11 21.26, 145.89 27.74 C169.68 34.23, 143.71 61.85, 143.52 68.73" stroke="#f08c00" stroke-width="1" fill="none"/></g><g transform="translate(320 557) rotate(0 72.5 34.5)"><path d="M145.42 49.07 C147.03 56.17, 143.22 61.24, 143.52 68.73 M145.42 49.07 C145.25 55.38, 144.6 61.97, 143.52 68.73" stroke="#f08c00" stroke-width="1" fill="none"/></g><g transform="translate(320 557) rotate(0 72.5 34.5)"><path d="M157.61 54.89 C155.95 60.39, 148.92 63.92, 143.52 68.73 M157.61 54.89 C153.45 59.18, 148.75 63.84, 143.52 68.73" stroke="#f08c00" stroke-width="1" fill="none"/></g></g><mask/></g><g xmlns:ns40="http://www.w3.org/2000/svg" ns40:clip-path="url(#j0_XHuITAWcOvOJZc3coa)"><g stroke-linecap="round"><g transform="translate(175 667) rotate(0 72.5 34.25)"><path d="M1.19 1.16 C0.9 1.38, -24.85 1.06, -0.82 0.59 C23.22 0.12, 121.23 -13.17, 145.39 -1.63 C169.54 9.9, 144.2 57.89, 144.1 69.79 M0.35 0.73 C0.36 0.69, -22.61 -0.69, 1.47 -0.96 C25.54 -1.24, 121.09 -12.35, 144.82 -0.91 C168.56 10.52, 143.54 55.73, 143.87 67.64" stroke="#f08c00" stroke-width="1" fill="none"/></g><g transform="translate(175 667) rotate(0 72.5 34.25)"><path d="M141.36 42.77 C144.11 50.78, 144.93 62.18, 143.87 67.64 M141.36 42.77 C141.49 48.5, 142.07 52.82, 143.87 67.64" stroke="#f08c00" stroke-width="1" fill="none"/></g><g transform="translate(175 667) rotate(0 72.5 34.25)"><path d="M157.94 46.98 C154.44 53.56, 149 63.38, 143.87 67.64 M157.94 46.98 C154.69 51.95, 151.86 55.41, 143.87 67.64" stroke="#f08c00" stroke-width="1" fill="none"/></g></g><mask/></g><g xmlns:ns41="http://www.w3.org/2000/svg" ns41:clip-path="url(#j0_XHuITAWcOvOJZc3coa)"><g stroke-linecap="round"><g transform="translate(465 667) rotate(0 -72.5 34.25)"><path d="M1.16 -0.82 C1.46 -1.03, 25.64 -0.02, 1.09 -0.11 C-23.46 -0.21, -121.92 -12.88, -146.13 -1.4 C-170.35 10.08, -144.53 57.05, -144.21 68.76 M0.31 1.37 C0.61 1.28, 24.74 -1.71, 0.71 -2.04 C-23.31 -2.36, -119.79 -12.52, -143.84 -0.56 C-167.88 11.4, -143.31 58.12, -143.55 69.73" stroke="#f08c00" stroke-width="1" fill="none"/></g><g transform="translate(465 667) rotate(0 -72.5 34.25)"><path d="M-157.53 49.01 C-155.3 55.71, -149.9 57.04, -143.55 69.73 M-157.53 49.01 C-153.62 53.55, -151.26 57.63, -143.55 69.73" stroke="#f08c00" stroke-width="1" fill="none"/></g><g transform="translate(465 667) rotate(0 -72.5 34.25)"><path d="M-140.94 44.87 C-142.69 52.74, -141.32 55.07, -143.55 69.73 M-140.94 44.87 C-140.73 50.31, -142.1 55.32, -143.55 69.73" stroke="#f08c00" stroke-width="1" fill="none"/></g></g><mask/></g><g xmlns:ns42="http://www.w3.org/2000/svg" ns42:clip-path="url(#j0_XHuITAWcOvOJZc3coa)"><g stroke-linecap="round"><g transform="translate(320 797) rotate(0 0 14.5)"><path d="M-0.37 0.5 C-0.44 5.16, 0.18 23.67, 0.18 28.48 M0.43 0.28 C0.27 5.22, -0.21 24.21, -0.16 28.91" stroke="#2b8a3e" stroke-width="1" fill="none"/></g><g transform="translate(320 797) rotate(0 0 14.5)"><path d="M-4.98 15.23 C-2.33 20.94, -1.76 25.62, -0.16 28.91 M-4.98 15.23 C-3.28 20.16, -1.73 24.98, -0.16 28.91" stroke="#2b8a3e" stroke-width="1" fill="none"/></g><g transform="translate(320 797) rotate(0 0 14.5)"><path d="M4.94 15.34 C3.63 20.97, 0.25 25.61, -0.16 28.91 M4.94 15.34 C3.01 20.26, 0.93 25.04, -0.16 28.91" stroke="#2b8a3e" stroke-width="1" fill="none"/></g></g><mask/></g><g xmlns:ns43="http://www.w3.org/2000/svg" ns43:clip-path="url(#j0_XHuITAWcOvOJZc3coa)"><g stroke-linecap="round"><g transform="translate(320 897) rotate(0 0 14.5)"><path d="M0.5 0.18 C0.32 5, -0.5 23.8, -0.52 28.59 M0.09 -0.21 C0.03 4.71, 0.43 24.13, 0.45 29.07" stroke="#2b8a3e" stroke-width="1" fill="none"/></g><g transform="translate(320 897) rotate(0 0 14.5)"><path d="M-4.68 15.51 C-2.46 20.19, -1.2 26.73, 0.45 29.07 M-4.68 15.51 C-3.26 19.05, -2.02 22.95, 0.45 29.07" stroke="#2b8a3e" stroke-width="1" fill="none"/></g><g transform="translate(320 897) rotate(0 0 14.5)"><path d="M5.23 15.39 C3.52 20.16, 0.84 26.75, 0.45 29.07 M5.23 15.39 C3.88 18.95, 2.35 22.89, 0.45 29.07" stroke="#2b8a3e" stroke-width="1" fill="none"/></g></g><mask/></g><g xmlns:ns44="http://www.w3.org/2000/svg" ns44:clip-path="url(#j0_XHuITAWcOvOJZc3coa)"><g stroke-linecap="round"><g transform="translate(320 997) rotate(0 0 14.5)"><path d="M0.18 -0.52 C0.17 4.29, -0.37 24.38, -0.41 29.36 M-0.4 0.4 C-0.2 5.29, 0.63 23.9, 0.61 28.58" stroke="#2b8a3e" stroke-width="1" fill="none"/></g><g transform="translate(320 997) rotate(0 0 14.5)"><path d="M-4.67 15.08 C-4.07 17.65, -1.69 21.18, 0.61 28.58 M-4.67 15.08 C-3.02 19.75, -1 25.09, 0.61 28.58" stroke="#2b8a3e" stroke-width="1" fill="none"/></g><g transform="translate(320 997) rotate(0 0 14.5)"><path d="M5.24 14.84 C3.55 17.49, 3.63 21.07, 0.61 28.58 M5.24 14.84 C3.29 19.59, 1.71 25.02, 0.61 28.58" stroke="#2b8a3e" stroke-width="1" fill="none"/></g></g><mask/></g><g transform="translate(690 76) rotate(0 77 8.75)"><text x="0" y="12.5302734375" font-family="Helvetica, Segoe UI Emoji" font-size="14px" fill="#999999" text-anchor="start" style="white-space: pre;" direction="ltr" dominant-baseline="alphabetic">Failure and recovery</text></g><rect transform="translate(690 96.5) rotate(0 290 450)" width="580px" height="900px" rx="8" ry="8" fill="none" stroke="#bbb" stroke-width="2"/><g xmlns:ns45="http://www.w3.org/2000/svg" ns45:clip-path="url(#Ut3Z8o6ycAIR7WPZo6YWQ)"><g stroke-linecap="round" transform="translate(720 126.5) rotate(0 260 32.099999999999994)"><path d="M16.05 0 C149.13 0, 282.2 0, 503.95 0 C514.65 0, 520 5.35, 520 16.05 C520 26.7, 520 37.36, 520 48.15 C520 58.85, 514.65 64.2, 503.95 64.2 C372.68 64.2, 241.41 64.2, 16.05 64.2 C5.35 64.2, 0 58.85, 0 48.15 C0 38.63, 0 29.12, 0 16.05 C0 5.35, 5.35 0, 16.05 0" stroke="none" stroke-width="0" fill="#ffe3e3"/><path d="M16.05 0 C178.08 0, 340.1 0, 503.95 0 M16.05 0 C154.97 0, 293.9 0, 503.95 0 M503.95 0 C514.65 0, 520 5.35, 520 16.05 M503.95 0 C514.65 0, 520 5.35, 520 16.05 M520 16.05 C520 27.02, 520 37.99, 520 48.15 M520 16.05 C520 22.53, 520 29.01, 520 48.15 M520 48.15 C520 58.85, 514.65 64.2, 503.95 64.2 M520 48.15 C520 58.85, 514.65 64.2, 503.95 64.2 M503.95 64.2 C354.79 64.2, 205.63 64.2, 16.05 64.2 M503.95 64.2 C371.32 64.2, 238.68 64.2, 16.05 64.2 M16.05 64.2 C5.35 64.2, 0 58.85, 0 48.15 M16.05 64.2 C5.35 64.2, 0 58.85, 0 48.15 M0 48.15 C0 38.2, 0 28.25, 0 16.05 M0 48.15 C0 40.92, 0 33.69, 0 16.05 M0 16.05 C0 5.35, 5.35 0, 16.05 0 M0 16.05 C0 5.35, 5.35 0, 16.05 0" stroke="#c92a2a" stroke-width="1" fill="none"/></g></g><g xmlns:ns46="http://www.w3.org/2000/svg" ns46:clip-path="url(#Ut3Z8o6ycAIR7WPZo6YWQ)"><g transform="translate(892 139.5) rotate(0 88 9.200000000000003)"><text x="88" y="13.5203125" font-family="Helvetica, Segoe UI Emoji" font-size="16px" fill="#7f1d1d" text-anchor="middle" style="white-space: pre;" direction="ltr" dominant-baseline="alphabetic">target startup fails</text></g></g><g xmlns:ns47="http://www.w3.org/2000/svg" ns47:clip-path="url(#Ut3Z8o6ycAIR7WPZo6YWQ)"><g transform="translate(854.6 163.9) rotate(0 125.40000000000003 6.900000000000006)"><text x="125.4" y="10.140234374999999" font-family="Helvetica, Segoe UI Emoji" font-size="12px" fill="#7f1d1d" text-anchor="middle" style="white-space: pre;" direction="ltr" dominant-baseline="alphabetic">the session row still names the source</text></g></g><g xmlns:ns48="http://www.w3.org/2000/svg" ns48:clip-path="url(#Ut3Z8o6ycAIR7WPZo6YWQ)"><g stroke-linecap="round" transform="translate(720 216.5) rotate(0 260 32.099999999999994)"><path d="M16.05 0 C191.06 0, 366.07 0, 503.95 0 C514.65 0, 520 5.35, 520 16.05 C520 26.07, 520 36.09, 520 48.15 C520 58.85, 514.65 64.2, 503.95 64.2 C325.19 64.2, 146.42 64.2, 16.05 64.2 C5.35 64.2, 0 58.85, 0 48.15 C0 40.27, 0 32.39, 0 16.05 C0 5.35, 5.35 0, 16.05 0" stroke="none" stroke-width="0" fill="#ffe3e3"/><path d="M16.05 0 C194.44 0, 372.83 0, 503.95 0 M16.05 0 C141.74 0, 267.44 0, 503.95 0 M503.95 0 C514.65 0, 520 5.35, 520 16.05 M503.95 0 C514.65 0, 520 5.35, 520 16.05 M520 16.05 C520 25.68, 520 35.31, 520 48.15 M520 16.05 C520 25.59, 520 35.13, 520 48.15 M520 48.15 C520 58.85, 514.65 64.2, 503.95 64.2 M520 48.15 C520 58.85, 514.65 64.2, 503.95 64.2 M503.95 64.2 C311.64 64.2, 119.34 64.2, 16.05 64.2 M503.95 64.2 C382.44 64.2, 260.93 64.2, 16.05 64.2 M16.05 64.2 C5.35 64.2, 0 58.85, 0 48.15 M16.05 64.2 C5.35 64.2, 0 58.85, 0 48.15 M0 48.15 C0 39.45, 0 30.76, 0 16.05 M0 48.15 C0 40.77, 0 33.39, 0 16.05 M0 16.05 C0 5.35, 5.35 0, 16.05 0 M0 16.05 C0 5.35, 5.35 0, 16.05 0" stroke="#c92a2a" stroke-width="1" fill="none"/></g></g><g xmlns:ns49="http://www.w3.org/2000/svg" ns49:clip-path="url(#Ut3Z8o6ycAIR7WPZo6YWQ)"><g transform="translate(909.6 229.5) rotate(0 70.40000000000003 9.199999999999989)"><text x="70.4" y="13.5203125" font-family="Helvetica, Segoe UI Emoji" font-size="16px" fill="#7f1d1d" text-anchor="middle" style="white-space: pre;" direction="ltr" dominant-baseline="alphabetic">CAS the row back</text></g></g><g xmlns:ns50="http://www.w3.org/2000/svg" ns50:clip-path="url(#Ut3Z8o6ycAIR7WPZo6YWQ)"><g transform="translate(811.7 253.89999999999998) rotate(0 168.30000000000007 6.900000000000006)"><text x="168.3" y="10.140234374999999" font-family="Helvetica, Segoe UI Emoji" font-size="12px" fill="#7f1d1d" text-anchor="middle" style="white-space: pre;" direction="ltr" dominant-baseline="alphabetic">mode, generation and handles restored to the source</text></g></g><g xmlns:ns51="http://www.w3.org/2000/svg" ns51:clip-path="url(#Ut3Z8o6ycAIR7WPZo6YWQ)"><g stroke-linecap="round" transform="translate(720 306.5) rotate(0 260 32.099999999999994)"><path d="M16.05 0 C182.04 0, 348.03 0, 503.95 0 C514.65 0, 520 5.35, 520 16.05 C520 24.69, 520 33.32, 520 48.15 C520 58.85, 514.65 64.2, 503.95 64.2 C363.66 64.2, 223.36 64.2, 16.05 64.2 C5.35 64.2, 0 58.85, 0 48.15 C0 40.61, 0 33.08, 0 16.05 C0 5.35, 5.35 0, 16.05 0" stroke="none" stroke-width="0" fill="#fff3bf"/><path d="M16.05 0 C155.61 0, 295.17 0, 503.95 0 M16.05 0 C143.19 0, 270.34 0, 503.95 0 M503.95 0 C514.65 0, 520 5.35, 520 16.05 M503.95 0 C514.65 0, 520 5.35, 520 16.05 M520 16.05 C520 27.19, 520 38.33, 520 48.15 M520 16.05 C520 28.62, 520 41.19, 520 48.15 M520 48.15 C520 58.85, 514.65 64.2, 503.95 64.2 M520 48.15 C520 58.85, 514.65 64.2, 503.95 64.2 M503.95 64.2 C349.12 64.2, 194.28 64.2, 16.05 64.2 M503.95 64.2 C316.63 64.2, 129.3 64.2, 16.05 64.2 M16.05 64.2 C5.35 64.2, 0 58.85, 0 48.15 M16.05 64.2 C5.35 64.2, 0 58.85, 0 48.15 M0 48.15 C0 40.24, 0 32.34, 0 16.05 M0 48.15 C0 35.55, 0 22.94, 0 16.05 M0 16.05 C0 5.35, 5.35 0, 16.05 0 M0 16.05 C0 5.35, 5.35 0, 16.05 0" stroke="#f08c00" stroke-width="1" fill="none"/></g></g><g xmlns:ns52="http://www.w3.org/2000/svg" ns52:clip-path="url(#Ut3Z8o6ycAIR7WPZo6YWQ)"><g transform="translate(905.2 319.5) rotate(0 74.80000000000007 9.199999999999989)"><text x="74.80000000000001" y="13.5203125" font-family="Helvetica, Segoe UI Emoji" font-size="16px" fill="#663c00" text-anchor="middle" style="white-space: pre;" direction="ltr" dominant-baseline="alphabetic">resume the source</text></g></g><g xmlns:ns53="http://www.w3.org/2000/svg" ns53:clip-path="url(#Ut3Z8o6ycAIR7WPZo6YWQ)"><g transform="translate(834.8 343.9) rotate(0 145.20000000000005 6.900000000000006)"><text x="145.20000000000002" y="10.140234374999999" font-family="Helvetica, Segoe UI Emoji" font-size="12px" fill="#663c00" text-anchor="middle" style="white-space: pre;" direction="ltr" dominant-baseline="alphabetic">files and completed provider context survive</text></g></g><g xmlns:ns54="http://www.w3.org/2000/svg" ns54:clip-path="url(#Ut3Z8o6ycAIR7WPZo6YWQ)"><g stroke-linecap="round" transform="translate(720 396.5) rotate(0 260 30)"><path d="M15 0 C193.98 0, 372.95 0, 505 0 C515 0, 520 5, 520 15 C520 25.39, 520 35.78, 520 45 C520 55, 515 60, 505 60 C342.75 60, 180.5 60, 15 60 C5 60, 0 55, 0 45 C0 36.31, 0 27.61, 0 15 C0 5, 5 0, 15 0" stroke="none" stroke-width="0" fill="#ffe3e3"/><path d="M15 0 C128.88 0, 242.77 0, 505 0 M15 0 C127.52 0, 240.04 0, 505 0 M505 0 C515 0, 520 5, 520 15 M505 0 C515 0, 520 5, 520 15 M520 15 C520 21.79, 520 28.58, 520 45 M520 15 C520 24.01, 520 33.02, 520 45 M520 45 C520 55, 515 60, 505 60 M520 45 C520 55, 515 60, 505 60 M505 60 C324.59 60, 144.19 60, 15 60 M505 60 C388.64 60, 272.27 60, 15 60 M15 60 C5 60, 0 55, 0 45 M15 60 C5 60, 0 55, 0 45 M0 45 C0 37.34, 0 29.68, 0 15 M0 45 C0 33.12, 0 21.23, 0 15 M0 15 C0 5, 5 0, 15 0 M0 15 C0 5, 5 0, 15 0" stroke="#c92a2a" stroke-width="1" fill="none"/></g></g><g xmlns:ns55="http://www.w3.org/2000/svg" ns55:clip-path="url(#Ut3Z8o6ycAIR7WPZo6YWQ)"><g transform="translate(918.4 417.3) rotate(0 61.599999999999966 9.199999999999989)"><text x="61.60000000000001" y="13.5203125" font-family="Helvetica, Segoe UI Emoji" font-size="16px" fill="#7f1d1d" text-anchor="middle" style="white-space: pre;" direction="ltr" dominant-baseline="alphabetic">phase = failed</text></g></g><g xmlns:ns56="http://www.w3.org/2000/svg" ns56:clip-path="url(#Ut3Z8o6ycAIR7WPZo6YWQ)"><g stroke-linecap="round" transform="translate(720 526.5) rotate(0 260 30)"><path d="M15 0 C177.64 0, 340.28 0, 505 0 C515 0, 520 5, 520 15 C520 23.07, 520 31.14, 520 45 C520 55, 515 60, 505 60 C359.72 60, 214.45 60, 15 60 C5 60, 0 55, 0 45 C0 37.32, 0 29.64, 0 15 C0 5, 5 0, 15 0" stroke="none" stroke-width="0" fill="#ffe3e3"/><path d="M15 0 C187.94 0, 360.88 0, 505 0 M15 0 C143.5 0, 271.99 0, 505 0 M505 0 C515 0, 520 5, 520 15 M505 0 C515 0, 520 5, 520 15 M520 15 C520 21.56, 520 28.13, 520 45 M520 15 C520 22.03, 520 29.07, 520 45 M520 45 C520 55, 515 60, 505 60 M520 45 C520 55, 515 60, 505 60 M505 60 C344.6 60, 184.2 60, 15 60 M505 60 C316.53 60, 128.06 60, 15 60 M15 60 C5 60, 0 55, 0 45 M15 60 C5 60, 0 55, 0 45 M0 45 C0 38.49, 0 31.98, 0 15 M0 45 C0 37.09, 0 29.19, 0 15 M0 15 C0 5, 5 0, 15 0 M0 15 C0 5, 5 0, 15 0" stroke="#c92a2a" stroke-width="1" fill="none"/></g></g><g xmlns:ns57="http://www.w3.org/2000/svg" ns57:clip-path="url(#Ut3Z8o6ycAIR7WPZo6YWQ)"><g transform="translate(861.2 547.3) rotate(0 118.80000000000007 9.199999999999989)"><text x="118.80000000000001" y="13.5203125" font-family="Helvetica, Segoe UI Emoji" font-size="16px" fill="#7f1d1d" text-anchor="middle" style="white-space: pre;" direction="ltr" dominant-baseline="alphabetic">the daemon dies mid-handoff</text></g></g><g xmlns:ns58="http://www.w3.org/2000/svg" ns58:clip-path="url(#Ut3Z8o6ycAIR7WPZo6YWQ)"><g stroke-linecap="round" transform="translate(720 616.5) rotate(0 260 32.10000000000002)"><path d="M16.05 0 C163.97 0, 311.9 0, 503.95 0 C514.65 0, 520 5.35, 520 16.05 C520 23.97, 520 31.89, 520 48.15 C520 58.85, 514.65 64.2, 503.95 64.2 C403.26 64.2, 302.57 64.2, 16.05 64.2 C5.35 64.2, 0 58.85, 0 48.15 C0 38.21, 0 28.27, 0 16.05 C0 5.35, 5.35 0, 16.05 0" stroke="none" stroke-width="0" fill="#fff3bf"/><path d="M16.05 0 C143.19 0, 270.34 0, 503.95 0 M16.05 0 C122.31 0, 228.56 0, 503.95 0 M503.95 0 C514.65 0, 520 5.35, 520 16.05 M503.95 0 C514.65 0, 520 5.35, 520 16.05 M520 16.05 C520 28.62, 520 41.19, 520 48.15 M520 16.05 C520 27.8, 520 39.56, 520 48.15 M520 48.15 C520 58.85, 514.65 64.2, 503.95 64.2 M520 48.15 C520 58.85, 514.65 64.2, 503.95 64.2 M503.95 64.2 C316.63 64.2, 129.3 64.2, 16.05 64.2 M503.95 64.2 C361.44 64.2, 218.93 64.2, 16.05 64.2 M16.05 64.2 C5.35 64.2, 0 58.85, 0 48.15 M16.05 64.2 C5.35 64.2, 0 58.85, 0 48.15 M0 48.15 C0 35.55, 0 22.94, 0 16.05 M0 48.15 C0 39.56, 0 30.98, 0 16.05 M0 16.05 C0 5.35, 5.35 0, 16.05 0 M0 16.05 C0 5.35, 5.35 0, 16.05 0" stroke="#f08c00" stroke-width="1" fill="none"/></g></g><g xmlns:ns59="http://www.w3.org/2000/svg" ns59:clip-path="url(#Ut3Z8o6ycAIR7WPZo6YWQ)"><g transform="translate(896.4 629.5) rotate(0 83.59999999999997 9.199999999999989)"><text x="83.60000000000001" y="13.5203125" font-family="Helvetica, Segoe UI Emoji" font-size="16px" fill="#663c00" text-anchor="middle" style="white-space: pre;" direction="ltr" dominant-baseline="alphabetic">boot reconciliation</text></g></g><g xmlns:ns60="http://www.w3.org/2000/svg" ns60:clip-path="url(#Ut3Z8o6ycAIR7WPZo6YWQ)"><g transform="translate(838.1 653.9) rotate(0 141.90000000000003 6.899999999999977)"><text x="141.9" y="10.140234374999999" font-family="Helvetica, Segoe UI Emoji" font-size="12px" fill="#663c00" text-anchor="middle" style="white-space: pre;" direction="ltr" dominant-baseline="alphabetic">finds the interrupted transition on startup</text></g></g><g xmlns:ns61="http://www.w3.org/2000/svg" ns61:clip-path="url(#Ut3Z8o6ycAIR7WPZo6YWQ)"><g stroke-linecap="round" transform="translate(720 706.5) rotate(0 260 32.10000000000002)"><path d="M16.05 0 C193.13 0, 370.21 0, 503.95 0 C514.65 0, 520 5.35, 520 16.05 C520 24.61, 520 33.17, 520 48.15 C520 58.85, 514.65 64.2, 503.95 64.2 C366.4 64.2, 228.86 64.2, 16.05 64.2 C5.35 64.2, 0 58.85, 0 48.15 C0 41.38, 0 34.6, 0 16.05 C0 5.35, 5.35 0, 16.05 0" stroke="none" stroke-width="0" fill="#fff3bf"/><path d="M16.05 0 C128.09 0, 240.13 0, 503.95 0 M16.05 0 C120.19 0, 224.33 0, 503.95 0 M503.95 0 C514.65 0, 520 5.35, 520 16.05 M503.95 0 C514.65 0, 520 5.35, 520 16.05 M520 16.05 C520 25.69, 520 35.33, 520 48.15 M520 16.05 C520 26.75, 520 37.46, 520 48.15 M520 48.15 C520 58.85, 514.65 64.2, 503.95 64.2 M520 48.15 C520 58.85, 514.65 64.2, 503.95 64.2 M503.95 64.2 C388.09 64.2, 272.22 64.2, 16.05 64.2 M503.95 64.2 C334.65 64.2, 165.35 64.2, 16.05 64.2 M16.05 64.2 C5.35 64.2, 0 58.85, 0 48.15 M16.05 64.2 C5.35 64.2, 0 58.85, 0 48.15 M0 48.15 C0 35.44, 0 22.72, 0 16.05 M0 48.15 C0 41.21, 0 34.28, 0 16.05 M0 16.05 C0 5.35, 5.35 0, 16.05 0 M0 16.05 C0 5.35, 5.35 0, 16.05 0" stroke="#f08c00" stroke-width="1" fill="none"/></g></g><g xmlns:ns62="http://www.w3.org/2000/svg" ns62:clip-path="url(#Ut3Z8o6ycAIR7WPZo6YWQ)"><g transform="translate(808.4 719.5) rotate(0 171.59999999999997 9.199999999999989)"><text x="171.60000000000002" y="13.5203125" font-family="Helvetica, Segoe UI Emoji" font-size="16px" fill="#663c00" text-anchor="middle" style="white-space: pre;" direction="ltr" dominant-baseline="alphabetic">restore the last committed session_mode</text></g></g><g xmlns:ns63="http://www.w3.org/2000/svg" ns63:clip-path="url(#Ut3Z8o6ycAIR7WPZo6YWQ)"><g transform="translate(782 743.9) rotate(0 198 6.899999999999977)"><text x="198.00000000000003" y="10.140234374999999" font-family="Helvetica, Segoe UI Emoji" font-size="12px" fill="#663c00" text-anchor="middle" style="white-space: pre;" direction="ltr" dominant-baseline="alphabetic">the controller that actually ran, not the one being aimed at</text></g></g><g xmlns:ns64="http://www.w3.org/2000/svg" ns64:clip-path="url(#Ut3Z8o6ycAIR7WPZo6YWQ)"><g stroke-linecap="round" transform="translate(720 796.5) rotate(0 260 30)"><path d="M15 0 C131.73 0, 248.46 0, 505 0 C515 0, 520 5, 520 15 C520 23.91, 520 32.82, 520 45 C520 55, 515 60, 505 60 C358.81 60, 212.63 60, 15 60 C5 60, 0 55, 0 45 C0 34.34, 0 23.69, 0 15 C0 5, 5 0, 15 0" stroke="none" stroke-width="0" fill="#ffe3e3"/><path d="M15 0 C207.89 0, 400.79 0, 505 0 M15 0 C125.04 0, 235.09 0, 505 0 M505 0 C515 0, 520 5, 520 15 M505 0 C515 0, 520 5, 520 15 M520 15 C520 26.39, 520 37.78, 520 45 M520 15 C520 21.66, 520 28.33, 520 45 M520 45 C520 55, 515 60, 505 60 M520 45 C520 55, 515 60, 505 60 M505 60 C368.39 60, 231.79 60, 15 60 M505 60 C369.95 60, 234.9 60, 15 60 M15 60 C5 60, 0 55, 0 45 M15 60 C5 60, 0 55, 0 45 M0 45 C0 34.65, 0 24.3, 0 15 M0 45 C0 33.89, 0 22.78, 0 15 M0 15 C0 5, 5 0, 15 0 M0 15 C0 5, 5 0, 15 0" stroke="#c92a2a" stroke-width="1" fill="none"/></g></g><g xmlns:ns65="http://www.w3.org/2000/svg" ns65:clip-path="url(#Ut3Z8o6ycAIR7WPZo6YWQ)"><g transform="translate(870 817.3) rotate(0 110 9.199999999999989)"><text x="110.00000000000001" y="13.5203125" font-family="Helvetica, Segoe UI Emoji" font-size="16px" fill="#7f1d1d" text-anchor="middle" style="white-space: pre;" direction="ltr" dominant-baseline="alphabetic">phase = recovery_required</text></g></g><g xmlns:ns66="http://www.w3.org/2000/svg" ns66:clip-path="url(#Ut3Z8o6ycAIR7WPZo6YWQ)"><g stroke-linecap="round"><g transform="translate(980 277) rotate(0 0 14.5)"><path d="M-0.48 -0.14 C-0.41 4.58, -0.06 23.69, 0 28.59 M0.28 -0.69 C0.31 4.07, -0.29 24.24, -0.43 29.07" stroke="#c92a2a" stroke-width="1" fill="none"/></g><g transform="translate(980 277) rotate(0 0 14.5)"><path d="M-5 15.31 C-4.12 18.45, -3.44 21.41, -0.43 29.07 M-5 15.31 C-3.75 20.07, -2.19 24.97, -0.43 29.07" stroke="#c92a2a" stroke-width="1" fill="none"/></g><g transform="translate(980 277) rotate(0 0 14.5)"><path d="M4.92 15.59 C3.54 18.63, 1.97 21.52, -0.43 29.07 M4.92 15.59 C2.73 20.26, 0.84 25.06, -0.43 29.07" stroke="#c92a2a" stroke-width="1" fill="none"/></g></g><mask/></g><g xmlns:ns67="http://www.w3.org/2000/svg" ns67:clip-path="url(#Ut3Z8o6ycAIR7WPZo6YWQ)"><g stroke-linecap="round"><g transform="translate(980 367) rotate(0 0 14.5)"><path d="M-0.14 0 C-0.25 4.89, -0.48 24.13, -0.41 28.87 M0.79 -0.48 C0.83 4.54, 0.73 24.63, 0.61 29.51" stroke="#c92a2a" stroke-width="1" fill="none"/></g><g transform="translate(980 367) rotate(0 0 14.5)"><path d="M-4.17 15.82 C-2.6 19.95, -1.13 25.52, 0.61 29.51 M-4.17 15.82 C-3.21 18.3, -2.12 21.69, 0.61 29.51" stroke="#c92a2a" stroke-width="1" fill="none"/></g><g transform="translate(980 367) rotate(0 0 14.5)"><path d="M5.75 15.95 C3.93 20.03, 2.01 25.55, 0.61 29.51 M5.75 15.95 C4.71 18.37, 3.79 21.74, 0.61 29.51" stroke="#c92a2a" stroke-width="1" fill="none"/></g></g><mask/></g><g xmlns:ns68="http://www.w3.org/2000/svg" ns68:clip-path="url(#Ut3Z8o6ycAIR7WPZo6YWQ)"><g stroke-linecap="round"><g transform="translate(980 587) rotate(0 0 14.5)"><path d="M0 -0.41 C0.06 4.49, -0.04 24.34, -0.13 29.26 M-0.66 0.56 C-0.65 5.31, -0.82 23.57, -0.62 28.43" stroke="#c92a2a" stroke-width="1" fill="none"/></g><g transform="translate(980 587) rotate(0 0 14.5)"><path d="M-5.75 14.86 C-5.22 17.59, -3.24 19.94, -0.62 28.43 M-5.75 14.86 C-4.48 19.25, -2.24 23.41, -0.62 28.43" stroke="#c92a2a" stroke-width="1" fill="none"/></g><g transform="translate(980 587) rotate(0 0 14.5)"><path d="M4.16 14.74 C2.58 17.49, 2.44 19.87, -0.62 28.43 M4.16 14.74 C2.31 19.16, 1.43 23.36, -0.62 28.43" stroke="#c92a2a" stroke-width="1" fill="none"/></g></g><mask/></g><g xmlns:ns69="http://www.w3.org/2000/svg" ns69:clip-path="url(#Ut3Z8o6ycAIR7WPZo6YWQ)"><g stroke-linecap="round"><g transform="translate(980 677) rotate(0 0 14.5)"><path d="M-0.41 -0.13 C-0.35 4.62, 0.18 23.67, 0.26 28.46 M0.37 -0.67 C0.4 4.12, 0.06 23.94, -0.04 28.88" stroke="#c92a2a" stroke-width="1" fill="none"/></g><g transform="translate(980 677) rotate(0 0 14.5)"><path d="M-4.75 15.17 C-3.63 19.29, -2.88 22.82, -0.04 28.88 M-4.75 15.17 C-3.58 18.62, -2.63 21.48, -0.04 28.88" stroke="#c92a2a" stroke-width="1" fill="none"/></g><g transform="translate(980 677) rotate(0 0 14.5)"><path d="M5.17 15.35 C3.57 19.38, 1.6 22.86, -0.04 28.88 M5.17 15.35 C4.1 18.72, 2.8 21.54, -0.04 28.88" stroke="#c92a2a" stroke-width="1" fill="none"/></g></g><mask/></g><g xmlns:ns70="http://www.w3.org/2000/svg" ns70:clip-path="url(#Ut3Z8o6ycAIR7WPZo6YWQ)"><g stroke-linecap="round"><g transform="translate(980 767) rotate(0 0 14.5)"><path d="M-0.13 0.26 C-0.22 5.18, -0.49 24.3, -0.54 29.08 M0.81 -0.08 C0.88 4.97, 0.43 24.88, 0.42 29.83" stroke="#c92a2a" stroke-width="1" fill="none"/></g><g transform="translate(980 767) rotate(0 0 14.5)"><path d="M-4.35 16.13 C-2.63 19.54, -1.43 23.82, 0.42 29.83 M-4.35 16.13 C-2.66 20.19, -1.49 24.26, 0.42 29.83" stroke="#c92a2a" stroke-width="1" fill="none"/></g><g transform="translate(980 767) rotate(0 0 14.5)"><path d="M5.56 16.27 C4.31 19.62, 2.53 23.86, 0.42 29.83 M5.56 16.27 C4.31 20.3, 2.54 24.33, 0.42 29.83" stroke="#c92a2a" stroke-width="1" fill="none"/></g></g><mask/></g><g xmlns:ns71="http://www.w3.org/2000/svg" ns71:clip-path="url(#Ut3Z8o6ycAIR7WPZo6YWQ)"><g stroke-linecap="round" transform="translate(720 886.5) rotate(0 260 35.42500000000001)"><path d="M17.71 0 C210.15 0.42, 404.37 -1, 502.29 0 C513.97 2.04, 516.63 3.94, 520 17.71 C522.46 31.16, 519.52 42.8, 520 53.14 C518.42 65.71, 514.45 72.95, 502.29 70.85 C365.58 74.8, 225.28 73.44, 17.71 70.85 C9.17 70.09, -0.95 62.23, 0 53.14 C-2.75 36.71, -0.83 26.88, 0 17.71 C3.53 4.41, 8.17 -2.55, 17.71 0" stroke="none" stroke-width="0" fill="#fff3bf"/><path d="M17.71 0 C125.7 -0.84, 234.74 -0.99, 502.29 0 M17.71 0 C123.74 -1.78, 229.79 -1.5, 502.29 0 M502.29 0 C512.79 1.59, 521.32 6.44, 520 17.71 M502.29 0 C514.23 0.77, 521.91 8.07, 520 17.71 M520 17.71 C519.16 23.72, 521.09 32.43, 520 53.14 M520 17.71 C521.04 28.46, 519.71 41.58, 520 53.14 M520 53.14 C521.69 64.52, 513.94 70.96, 502.29 70.85 M520 53.14 C520.23 66.03, 512.56 70.18, 502.29 70.85 M502.29 70.85 C368.1 69.94, 234.8 69.14, 17.71 70.85 M502.29 70.85 C397.52 73.11, 292.36 72.89, 17.71 70.85 M17.71 70.85 C5.18 71.75, -0.65 65.61, 0 53.14 M17.71 70.85 C5.28 68.92, 0.32 66.3, 0 53.14 M0 53.14 C-1.37 38.36, 0.97 26.16, 0 17.71 M0 53.14 C-0.18 40.65, 0.33 29.31, 0 17.71 M0 17.71 C-1.41 4.67, 6.83 -1.77, 17.71 0 M0 17.71 C-0.71 7.24, 4.68 1.53, 17.71 0" stroke="#f08c00" stroke-width="1" fill="none"/></g></g><g xmlns:ns72="http://www.w3.org/2000/svg" ns72:clip-path="url(#Ut3Z8o6ycAIR7WPZo6YWQ)"><g transform="translate(734 899.5) rotate(0 250.25 22.42500000000001)"><text x="0" y="10.98525390625" font-family="Helvetica, Segoe UI Emoji" font-size="13px" fill="#663c00" text-anchor="start" style="white-space: pre;" direction="ltr" dominant-baseline="alphabetic">Cancelled at acceptance leaves the source untouched: everything before</text><text x="0" y="25.935253906249997" font-family="Helvetica, Segoe UI Emoji" font-size="13px" fill="#663c00" text-anchor="start" style="white-space: pre;" direction="ltr" dominant-baseline="alphabetic">the commit point is reversible, and the dispatch fence stops a queued</text><text x="0" y="40.88525390625" font-family="Helvetica, Segoe UI Emoji" font-size="13px" fill="#663c00" text-anchor="start" style="white-space: pre;" direction="ltr" dominant-baseline="alphabetic">completion from being promoted while the target is still preflighting.</text></g></g><g stroke-linecap="round"><g transform="translate(590.5 861.5) rotate(0 64.5 -352.5)"><path d="M0.18 -0.88 C11.67 -0.85, 57.85 116.2, 69.47 -0.97 C81.08 -118.14, 59.95 -586.61, 69.87 -703.9 C79.78 -821.19, 119.12 -704.7, 128.97 -704.71" stroke="#c92a2a" stroke-width="1.5" fill="none" stroke-dasharray="8 9"/></g><g transform="translate(590.5 861.5) rotate(0 64.5 -352.5)"><path d="M108.56 -719.15 C114.03 -714.22, 120.96 -708.54, 128.97 -704.71" stroke="#c92a2a" stroke-width="1.5" fill="none"/></g><g transform="translate(590.5 861.5) rotate(0 64.5 -352.5)"><path d="M122.62 -728.89 C123.11 -720.56, 125.17 -711.5, 128.97 -704.71" stroke="#c92a2a" stroke-width="1.5" fill="none"/></g></g><mask/><g transform="translate(1330 76) rotate(0 123.20000000000005 8.75)"><text x="0" y="12.5302734375" font-family="Helvetica, Segoe UI Emoji" font-size="14px" fill="#999999" text-anchor="start" style="white-space: pre;" direction="ltr" dominant-baseline="alphabetic">Fences and the no-controller gap</text></g><rect transform="translate(1330 96.5) rotate(0 220 280)" width="440px" height="560px" rx="8" ry="8" fill="none" stroke="#bbb" stroke-width="2"/><g xmlns:ns73="http://www.w3.org/2000/svg" ns73:clip-path="url(#Lk8LYPi_PkOH0DBuwOb8a)"><g stroke-linecap="round" transform="translate(1360 126.5) rotate(0 190 50.375)"><path d="M25.19 0 C123 5.28, 218.69 2.54, 354.81 0 C374.53 -0.65, 377.65 10.97, 380 25.19 C378.33 40.98, 380.26 57.34, 380 75.56 C379.44 89.15, 374.62 103.47, 354.81 100.75 C239.96 98.86, 119.99 97.52, 25.19 100.75 C11.4 103.59, -3.38 90.11, 0 75.56 C3.61 62.94, 2.35 50.75, 0 25.19 C0.35 9.78, 6.82 -3.43, 25.19 0" stroke="none" stroke-width="0" fill="#e5dbff"/><path d="M25.19 0 C127.97 0.48, 234.23 0.03, 354.81 0 M25.19 0 C131.66 -1.49, 239.49 -1.85, 354.81 0 M354.81 0 C371.72 0.67, 381.66 10.28, 380 25.19 M354.81 0 C369.81 -1.8, 380.4 7.75, 380 25.19 M380 25.19 C380.89 37.54, 382.02 47.44, 380 75.56 M380 25.19 C380.53 35.83, 379.61 46.96, 380 75.56 M380 75.56 C380.2 93.29, 370.27 100.17, 354.81 100.75 M380 75.56 C379.44 93.22, 370.37 99.03, 354.81 100.75 M354.81 100.75 C247.07 97.91, 142.87 100.46, 25.19 100.75 M354.81 100.75 C228.5 101.72, 102.47 101.64, 25.19 100.75 M25.19 100.75 C7.85 99.07, 0.28 93.53, 0 75.56 M25.19 100.75 C10.01 102.91, 0.92 91.17, 0 75.56 M0 75.56 C0.31 66.35, -0.27 53.95, 0 25.19 M0 75.56 C-1.02 63.51, 0.15 51.81, 0 25.19 M0 25.19 C-0.62 9.56, 7.33 1.33, 25.19 0 M0 25.19 C2.26 7.63, 8.11 -0.97, 25.19 0" stroke="#5f3dc4" stroke-width="1" fill="none"/></g></g><g xmlns:ns74="http://www.w3.org/2000/svg" ns74:clip-path="url(#Lk8LYPi_PkOH0DBuwOb8a)"><g transform="translate(1374 139.5) rotate(0 107.25 37.375)"><text x="0" y="10.98525390625" font-family="Helvetica, Segoe UI Emoji" font-size="13px" fill="#3b2a7a" text-anchor="start" style="white-space: pre;" direction="ltr" dominant-baseline="alphabetic">Old Chat events are fenced by</text><text x="0" y="25.935253906249997" font-family="Helvetica, Segoe UI Emoji" font-size="13px" fill="#3b2a7a" text-anchor="start" style="white-space: pre;" direction="ltr" dominant-baseline="alphabetic">controller generation. Old TUI</text><text x="0" y="40.88525390625" font-family="Helvetica, Segoe UI Emoji" font-size="13px" fill="#3b2a7a" text-anchor="start" style="white-space: pre;" direction="ltr" dominant-baseline="alphabetic">hooks are fenced by runtime</text><text x="0" y="55.835253906249996" font-family="Helvetica, Segoe UI Emoji" font-size="13px" fill="#3b2a7a" text-anchor="start" style="white-space: pre;" direction="ltr" dominant-baseline="alphabetic">launch id. Neither can be</text><text x="0" y="70.78525390624999" font-family="Helvetica, Segoe UI Emoji" font-size="13px" fill="#3b2a7a" text-anchor="start" style="white-space: pre;" direction="ltr" dominant-baseline="alphabetic">mistaken for the new owner.</text></g></g><g xmlns:ns75="http://www.w3.org/2000/svg" ns75:clip-path="url(#Lk8LYPi_PkOH0DBuwOb8a)"><g stroke-linecap="round" transform="translate(1360 256.5) rotate(0 190 50.375)"><path d="M25.19 0 C90.25 -3.64, 161.92 -2.74, 354.81 0 C369.26 2.58, 379.94 8.03, 380 25.19 C379.95 39.7, 379.04 46.8, 380 75.56 C383.01 95.08, 373.59 97.74, 354.81 100.75 C266.38 98.04, 181.29 101.84, 25.19 100.75 C5.02 98.51, -2.84 92.03, 0 75.56 C1.38 56.64, -0.54 44.19, 0 25.19 C-1.58 4.96, 8.04 3.25, 25.19 0" stroke="none" stroke-width="0" fill="#d3f9d8"/><path d="M25.19 0 C124.39 -0.72, 221.42 -0.69, 354.81 0 M25.19 0 C154.24 -1.61, 282.43 -1.57, 354.81 0 M354.81 0 C373.26 1.88, 378.44 6.83, 380 25.19 M354.81 0 C372 -0.65, 377.86 9.96, 380 25.19 M380 25.19 C381.82 39.13, 378.45 49.03, 380 75.56 M380 25.19 C380.35 43.76, 380.53 62.7, 380 75.56 M380 75.56 C378.66 91.77, 371.12 101.5, 354.81 100.75 M380 75.56 C378.76 90.63, 372.14 99.72, 354.81 100.75 M354.81 100.75 C280.32 99.97, 204.42 99.99, 25.19 100.75 M354.81 100.75 C245.97 101.99, 137.39 101.19, 25.19 100.75 M25.19 100.75 C8.68 101.92, 1.41 94.24, 0 75.56 M25.19 100.75 C9.32 99.56, -1.91 93.86, 0 75.56 M0 75.56 C-0.1 62.55, -1.62 50.32, 0 25.19 M0 75.56 C0.82 61.12, 0.05 49.04, 0 25.19 M0 25.19 C-1.06 9.72, 10.37 -0.67, 25.19 0 M0 25.19 C-0.29 7.42, 8.33 0.72, 25.19 0" stroke="#2b8a3e" stroke-width="1" fill="none"/></g></g><g xmlns:ns76="http://www.w3.org/2000/svg" ns76:clip-path="url(#Lk8LYPi_PkOH0DBuwOb8a)"><g transform="translate(1374 269.5) rotate(0 117.97500000000002 37.375)"><text x="0" y="10.98525390625" font-family="Helvetica, Segoe UI Emoji" font-size="13px" fill="#14532d" text-anchor="start" style="white-space: pre;" direction="ltr" dominant-baseline="alphabetic">Messages that arrive while no</text><text x="0" y="25.935253906249997" font-family="Helvetica, Segoe UI Emoji" font-size="13px" fill="#14532d" text-anchor="start" style="white-space: pre;" direction="ltr" dominant-baseline="alphabetic">controller is live wait in a</text><text x="0" y="40.88525390625" font-family="Helvetica, Segoe UI Emoji" font-size="13px" fill="#14532d" text-anchor="start" style="white-space: pre;" direction="ltr" dominant-baseline="alphabetic">durable outbox, delivered</text><text x="0" y="55.835253906249996" font-family="Helvetica, Segoe UI Emoji" font-size="13px" fill="#14532d" text-anchor="start" style="white-space: pre;" direction="ltr" dominant-baseline="alphabetic">through whichever controller ends</text><text x="0" y="70.78525390624999" font-family="Helvetica, Segoe UI Emoji" font-size="13px" fill="#14532d" text-anchor="start" style="white-space: pre;" direction="ltr" dominant-baseline="alphabetic">up owning the session.</text></g></g><g xmlns:ns77="http://www.w3.org/2000/svg" ns77:clip-path="url(#Lk8LYPi_PkOH0DBuwOb8a)"><g stroke-linecap="round" transform="translate(1360 396.5) rotate(0 190 50.375)"><path d="M25.19 0 C144.75 1.77, 258.71 3.98, 354.81 0 C371.54 -0.37, 378.07 6.81, 380 25.19 C379.53 38.16, 383.1 60.27, 380 75.56 C381.99 89.35, 370.39 104.01, 354.81 100.75 C264.92 99.63, 168.61 96.15, 25.19 100.75 C5.55 100.42, 0.9 95.88, 0 75.56 C-0.22 63.92, -2.15 46.08, 0 25.19 C-0.36 11.64, 9.97 -2.7, 25.19 0" stroke="none" stroke-width="0" fill="#fff3bf"/><path d="M25.19 0 C134.49 0.06, 244.36 -0.84, 354.81 0 M25.19 0 C150.39 -0.38, 276.08 0.04, 354.81 0 M354.81 0 C370.05 -1.57, 380.35 7.83, 380 25.19 M354.81 0 C369.46 1.57, 378.83 9.02, 380 25.19 M380 25.19 C378.73 43.89, 381.78 66.78, 380 75.56 M380 25.19 C380.06 39.7, 379.29 52.98, 380 75.56 M380 75.56 C379.51 93.1, 370.53 99.25, 354.81 100.75 M380 75.56 C380.54 91.33, 369.99 98.84, 354.81 100.75 M354.81 100.75 C287.41 104.2, 218.15 102.38, 25.19 100.75 M354.81 100.75 C240.88 100.93, 127.42 101.9, 25.19 100.75 M25.19 100.75 C9.8 102.63, 0.8 91.32, 0 75.56 M25.19 100.75 C6.48 102.25, -0.85 93.09, 0 75.56 M0 75.56 C-1.48 57.38, -0.64 35.27, 0 25.19 M0 75.56 C-0.54 64.14, -0.77 52.23, 0 25.19 M0 25.19 C1.97 7.73, 8.15 -0.85, 25.19 0 M0 25.19 C-0.07 9.11, 6.2 -0.08, 25.19 0" stroke="#f08c00" stroke-width="1" fill="none"/></g></g><g xmlns:ns78="http://www.w3.org/2000/svg" ns78:clip-path="url(#Lk8LYPi_PkOH0DBuwOb8a)"><g transform="translate(1374 409.5) rotate(0 114.39999999999998 37.375)"><text x="0" y="10.98525390625" font-family="Helvetica, Segoe UI Emoji" font-size="13px" fill="#663c00" text-anchor="start" style="white-space: pre;" direction="ltr" dominant-baseline="alphabetic">A drain may wait indefinitely on</text><text x="0" y="25.935253906249997" font-family="Helvetica, Segoe UI Emoji" font-size="13px" fill="#663c00" text-anchor="start" style="white-space: pre;" direction="ltr" dominant-baseline="alphabetic">an approval. An unverified idle</text><text x="0" y="40.88525390625" font-family="Helvetica, Segoe UI Emoji" font-size="13px" fill="#663c00" text-anchor="start" style="white-space: pre;" direction="ltr" dominant-baseline="alphabetic">surface has a bounded proof</text><text x="0" y="55.835253906249996" font-family="Helvetica, Segoe UI Emoji" font-size="13px" fill="#663c00" text-anchor="start" style="white-space: pre;" direction="ltr" dominant-baseline="alphabetic">window; a visible draft fails</text><text x="0" y="70.78525390624999" font-family="Helvetica, Segoe UI Emoji" font-size="13px" fill="#663c00" text-anchor="start" style="white-space: pre;" direction="ltr" dominant-baseline="alphabetic">with the source untouched.</text></g></g></svg>